<?xml version="1.0" encoding="UTF-8"?>
<!DOCTYPE svg PUBLIC "-//W3C//DTD SVG 1.1//EN" "http://www.w3.org/Graphics/SVG/1.1/DTD/svg11.dtd">
<svg xmlns="http://www.w3.org/2000/svg" version="1.1" width="3840px" height="2160px" style="shape-rendering:geometricPrecision; text-rendering:geometricPrecision; image-rendering:optimizeQuality; fill-rule:evenodd; clip-rule:evenodd" xmlns:xlink="http://www.w3.org/1999/xlink">
<g>
    <path style="opacity:1" fill="#000000" d="M -0.5,-0.5 C 1279.5,-0.5 2559.5,-0.5 3839.5,-0.5C 3839.5,719.5 3839.5,1439.5 3839.5,2159.5C 3432.5,2159.5 3025.5,2159.5 2618.5,2159.5C 2613.98,2152.62 2610.65,2145.12 2608.5,2137C 2609.54,2131.2 2610.37,2125.37 2611,2119.5C 2614.22,2109.96 2617.89,2100.63 2622,2091.5C 2623.67,2080.12 2625.67,2068.79 2628,2057.5C 2630.38,2050 2633.72,2043 2638,2036.5C 2642.5,2031.47 2648.17,2029.13 2655,2029.5C 2664.35,2030.42 2673.52,2032.25 2682.5,2035C 2696.11,2036.74 2709.78,2037.58 2723.5,2037.5C 2722.78,2032.72 2720.95,2028.39 2718,2024.5C 2712.37,2017.21 2706.37,2010.21 2700,2003.5C 2694.31,1994.13 2687.47,1985.63 2679.5,1978C 2666.23,1972.03 2653.56,1965.03 2641.5,1957C 2639.34,1953.84 2636.84,1951.01 2634,1948.5C 2630.48,1941.62 2627.15,1934.62 2624,1927.5C 2621.29,1913.04 2616.79,1899.21 2610.5,1886C 2607.33,1884.66 2604.16,1883.49 2601,1882.5C 2594.12,1883.03 2587.29,1883.86 2580.5,1885C 2569.12,1895.34 2556.12,1898.01 2541.5,1893C 2534.69,1890.43 2528.36,1887.1 2522.5,1883C 2514.5,1873.67 2506.5,1864.33 2498.5,1855C 2454.15,1856.55 2414.49,1843.88 2379.5,1817C 2364.92,1801.75 2350.42,1786.59 2336,1771.5C 2327.5,1757.82 2318.5,1744.49 2309,1731.5C 2298.65,1720.15 2288.65,1708.49 2279,1696.5C 2266.73,1684.89 2253.89,1674.05 2240.5,1664C 2222.01,1655.06 2202.84,1647.89 2183,1642.5C 2180.17,1644.95 2177.67,1647.78 2175.5,1651C 2166.61,1657.74 2156.44,1660.91 2145,1660.5C 2122.34,1658.36 2099.84,1655.19 2077.5,1651C 2065.89,1647.72 2057.73,1640.56 2053,1629.5C 2045.33,1607.16 2037.66,1584.82 2030,1562.5C 2025.01,1553.2 2020.01,1543.86 2015,1534.5C 2012.54,1530.2 2009.21,1526.87 2005,1524.5C 1996.46,1525.05 1987.96,1525.89 1979.5,1527C 1972.48,1533.02 1965.81,1539.36 1959.5,1546C 1943.5,1555.67 1927.5,1565.33 1911.5,1575C 1902.72,1580.15 1893.22,1583.31 1883,1584.5C 1871.66,1583.42 1861.83,1578.92 1853.5,1571C 1843.83,1562 1834.17,1553 1824.5,1544C 1810.19,1533.35 1796.19,1522.35 1782.5,1511C 1776.47,1504.31 1770.47,1497.64 1764.5,1491C 1757.57,1485.58 1750.24,1480.74 1742.5,1476.5C 1741.15,1490.85 1741.32,1505.19 1743,1519.5C 1743.67,1559.5 1743.67,1599.5 1743,1639.5C 1742.37,1648.21 1741.37,1656.88 1740,1665.5C 1738.41,1668.35 1737.08,1671.35 1736,1674.5C 1720.42,1692.08 1701.58,1704.91 1679.5,1713C 1655.97,1716.86 1632.64,1721.52 1609.5,1727C 1599.5,1727.39 1589.5,1727.22 1579.5,1726.5C 1573.45,1726.5 1567.45,1727 1561.5,1728C 1544.72,1733.72 1528.72,1741.06 1513.5,1750C 1507.95,1753.88 1503.45,1758.71 1500,1764.5C 1496.8,1776.05 1494.13,1787.72 1492,1799.5C 1488.58,1809.92 1483.08,1819.08 1475.5,1827C 1466.39,1833.3 1457.22,1839.47 1448,1845.5C 1428.54,1875.68 1420.87,1908.68 1425,1944.5C 1437.77,1953.3 1451.6,1960.13 1466.5,1965C 1486.81,1966.49 1507.15,1966.82 1527.5,1966C 1554.43,1961.93 1581.1,1956.6 1607.5,1950C 1615.58,1949.1 1623.58,1949.43 1631.5,1951C 1635.89,1954.37 1639.05,1958.53 1641,1963.5C 1642.46,1972.14 1640.79,1980.14 1636,1987.5C 1632.33,1992.5 1628.67,1997.5 1625,2002.5C 1605.07,2023.43 1584.24,2043.26 1562.5,2062C 1556.76,2066.06 1550.76,2069.73 1544.5,2073C 1501.69,2089.49 1459.36,2107.16 1417.5,2126C 1412.33,2128.67 1407.83,2132.17 1404,2136.5C 1399.3,2143.76 1395.47,2151.43 1392.5,2159.5C 1231.5,2159.5 1070.5,2159.5 909.5,2159.5C 914.159,2140.95 925.492,2128.78 943.5,2123C 958.013,2113.62 974.013,2108.62 991.5,2108C 1029.82,2105.63 1068.15,2103.96 1106.5,2103C 1128.76,2099.53 1149.76,2092.53 1169.5,2082C 1174.36,2076.79 1177.53,2070.63 1179,2063.5C 1181.92,2045.37 1186.42,2027.7 1192.5,2010.5C 1197.43,2000.4 1204.1,1991.56 1212.5,1984C 1213.45,1983.52 1214.45,1983.35 1215.5,1983.5C 1215.28,1982.32 1215.61,1981.32 1216.5,1980.5C 1229.33,1973.67 1242.83,1968.67 1257,1965.5C 1261.94,1965.7 1266.77,1966.53 1271.5,1968C 1279.02,1971.51 1286.86,1974.01 1295,1975.5C 1312.77,1973.24 1329.94,1968.74 1346.5,1962C 1354.95,1957.78 1363.61,1954.11 1372.5,1951C 1375.83,1948.33 1379.17,1945.67 1382.5,1943C 1386.46,1935.58 1391.3,1928.74 1397,1922.5C 1396.86,1908.93 1398.53,1895.59 1402,1882.5C 1407.55,1867.08 1413.88,1852.08 1421,1837.5C 1423.66,1832.34 1427.16,1827.84 1431.5,1824C 1441.4,1818.13 1450.9,1811.63 1460,1804.5C 1461.93,1801.63 1463.6,1798.63 1465,1795.5C 1467.23,1778.9 1471.56,1762.9 1478,1747.5C 1484.54,1738.57 1492.54,1731.23 1502,1725.5C 1508.77,1721.53 1515.6,1717.7 1522.5,1714C 1535.59,1708.8 1548.92,1704.13 1562.5,1700C 1578.5,1699.67 1594.5,1699.33 1610.5,1699C 1631.3,1693.96 1652.3,1689.96 1673.5,1687C 1687.34,1680.68 1699.84,1672.51 1711,1662.5C 1711.58,1661 1712.42,1659.67 1713.5,1658.5C 1714.48,1652.19 1715.32,1645.86 1716,1639.5C 1716.83,1583.48 1716.33,1527.48 1714.5,1471.5C 1701.66,1469.17 1690.83,1463.17 1682,1453.5C 1676.74,1445.97 1671.74,1438.3 1667,1430.5C 1659.64,1410.44 1650.64,1391.1 1640,1372.5C 1635.62,1361.9 1632.62,1350.9 1631,1339.5C 1626.67,1332.83 1622.33,1326.17 1618,1319.5C 1613.53,1312.22 1609.86,1304.55 1607,1296.5C 1603.05,1281.16 1608.22,1270.16 1622.5,1263.5C 1628.63,1257.87 1631.8,1250.87 1632,1242.5C 1634.54,1218.05 1633.87,1193.72 1630,1169.5C 1629.38,1152.83 1628.72,1136.16 1628,1119.5C 1627.59,1115.73 1626.76,1112.06 1625.5,1108.5C 1602.12,1094.48 1578.45,1080.98 1554.5,1068C 1542.47,1056.39 1530.97,1044.22 1520,1031.5C 1512.38,1021.1 1504.88,1010.6 1497.5,1000C 1477.26,1001.38 1456.93,1001.72 1436.5,1001C 1424.2,999.185 1413.87,993.685 1405.5,984.5C 1396.35,973.519 1388.18,961.852 1381,949.5C 1379,947.337 1376.67,945.67 1374,944.5C 1371.84,946.801 1370.18,949.467 1369,952.5C 1368.09,957.162 1366.42,961.495 1364,965.5C 1360.68,991.165 1360.68,1016.83 1364,1042.5C 1367.31,1060.06 1369.98,1077.73 1372,1095.5C 1376.09,1130.9 1369.25,1163.9 1351.5,1194.5C 1346.88,1199.62 1341.55,1203.79 1335.5,1207C 1328.24,1208.71 1321.74,1211.88 1316,1216.5C 1315.25,1218.33 1314.25,1220 1313,1221.5C 1309.85,1240.46 1303.85,1258.46 1295,1275.5C 1288.71,1284.39 1280.88,1291.55 1271.5,1297C 1257.82,1302 1244.16,1307 1230.5,1312C 1224.75,1316.78 1221.58,1322.95 1221,1330.5C 1220.12,1388.18 1218.79,1445.85 1217,1503.5C 1216.16,1507.21 1215.16,1510.88 1214,1514.5C 1205.85,1529.13 1198.52,1544.13 1192,1559.5C 1181.16,1572.48 1174.66,1587.48 1172.5,1604.5C 1177.38,1620.67 1182.88,1636.67 1189,1652.5C 1191.76,1666.7 1192.93,1681.03 1192.5,1695.5C 1192.81,1712.88 1192.47,1730.21 1191.5,1747.5C 1190.21,1761.72 1184.88,1774.06 1175.5,1784.5C 1168.26,1792.24 1160.26,1799.07 1151.5,1805C 1143.8,1807.57 1136.46,1810.9 1129.5,1815C 1105.84,1814.21 1082.17,1813.54 1058.5,1813C 1051.12,1821.36 1042.12,1827.36 1031.5,1831C 990.152,1840.67 948.819,1850.34 907.5,1860C 898.982,1863.85 892.815,1870.02 889,1878.5C 882.527,1887.27 875.693,1895.77 868.5,1904C 860.565,1909.14 851.898,1910.8 842.5,1909C 825.578,1905.89 808.578,1903.39 791.5,1901.5C 789.527,1900.84 787.361,1900.5 785,1900.5C 781.523,1900.33 778.356,1900.99 775.5,1902.5C 753.208,1907.73 730.875,1912.89 708.5,1918C 685.65,1929.78 662.65,1941.12 639.5,1952C 631.39,1957.11 623.557,1962.61 616,1968.5C 608.36,1979.76 600.693,1991.09 593,2002.5C 583.483,2010.95 572.316,2014.28 559.5,2012.5C 546.114,2012.16 532.78,2011.16 519.5,2009.5C 518.951,2011.9 518.118,2014.23 517,2016.5C 503.178,2037.46 488.845,2058.13 474,2078.5C 465.238,2088.8 454.405,2095.96 441.5,2100C 435.5,2100.67 429.5,2100.67 423.5,2100C 409.712,2094.11 395.712,2088.77 381.5,2084C 362.202,2075.25 350.702,2060.41 347,2039.5C 345.341,2028.9 344.341,2018.23 344,2007.5C 342.46,2003.58 340.293,2000.08 337.5,1997C 319.122,1990.99 300.289,1988.49 281,1989.5C 268.257,1994.63 255.757,2000.13 243.5,2006C 237.592,2008.53 232.092,2011.7 227,2015.5C 225.985,2029.48 224.651,2043.48 223,2057.5C 217.427,2074.15 209.594,2089.65 199.5,2104C 188.344,2111.55 176.011,2114.22 162.5,2112C 146.329,2108.24 130.829,2102.74 116,2095.5C 106.025,2101.14 98.3579,2109.14 93,2119.5C 87.3114,2132.25 83.8114,2145.59 82.5,2159.5C 54.8333,2159.5 27.1667,2159.5 -0.5,2159.5C -0.5,1439.5 -0.5,719.5 -0.5,-0.5 Z"/>
</g>
<g>
    <path id="stalingrad_commune" style="opacity:1" fill="#e80f3c" d="M 2127.5,484.5 C 2138.56,485.348 2148.9,488.515 2158.5,494C 2167.83,506.996 2179.83,516.662 2194.5,523C 2213.62,526.075 2232.62,529.575 2251.5,533.5C 2263.25,530.152 2275.25,527.985 2287.5,527C 2311.5,526.667 2335.5,526.333 2359.5,526C 2382.25,524.447 2404.92,522.114 2427.5,519C 2451.83,518.5 2476.16,518.333 2500.5,518.5C 2501.13,523.428 2502.63,528.095 2505,532.5C 2511.97,539.902 2519.8,546.235 2528.5,551.5C 2536.91,555.244 2545.24,559.077 2553.5,563C 2570.36,573.93 2586.69,585.597 2602.5,598C 2606.73,599.95 2611.07,601.617 2615.5,603C 2627.1,604.768 2638.77,605.768 2650.5,606C 2653.63,606.393 2656.63,607.226 2659.5,608.5C 2664.26,617.68 2668.76,627.014 2673,636.5C 2687.46,654.625 2702.29,672.459 2717.5,690C 2728.19,696.349 2739.52,701.015 2751.5,704C 2758.13,704.943 2764.8,705.443 2771.5,705.5C 2791.83,703.583 2812.16,702.083 2832.5,701C 2839.24,708.498 2845.24,716.498 2850.5,725C 2858.97,731.932 2868.63,734.599 2879.5,733C 2884.73,731.026 2890.06,729.359 2895.5,728C 2904.26,724.639 2912.1,719.806 2919,713.5C 2924.31,705.874 2930.14,698.707 2936.5,692C 2939.42,690.472 2942.42,689.139 2945.5,688C 2952.31,686.175 2959.15,684.341 2966,682.5C 2971.15,684.63 2975.48,687.963 2979,692.5C 2991.13,706.964 3003.63,721.13 3016.5,735C 3031.25,748.484 3048.58,756.817 3068.5,760C 3098.96,760.626 3128.3,766.626 3156.5,778C 3162.56,785.389 3165.23,793.889 3164.5,803.5C 3164.08,820.977 3159.74,837.31 3151.5,852.5C 3140.42,866.319 3129.59,880.319 3119,894.5C 3108.61,906.721 3097.11,917.721 3084.5,927.5C 3081.33,931.167 3078.17,934.833 3075,938.5C 3062.42,959.641 3048.75,979.974 3034,999.5C 3028.5,1010.84 3023.83,1022.51 3020,1034.5C 3017.07,1049.43 3016.74,1064.43 3019,1079.5C 3022.28,1105.05 3031.95,1127.71 3048,1147.5C 3052.86,1151.69 3058.03,1155.52 3063.5,1159C 3074.6,1162.26 3085.93,1163.6 3097.5,1163C 3114.99,1159.29 3130.66,1151.96 3144.5,1141C 3147.11,1139.52 3149.78,1138.35 3152.5,1137.5C 3155.1,1147.46 3157.6,1157.46 3160,1167.5C 3161.26,1172.79 3161.6,1178.12 3161,1183.5C 3156.89,1195.05 3152.23,1206.38 3147,1217.5C 3143.13,1232.48 3138.13,1247.15 3132,1261.5C 3129.9,1268.71 3129.23,1276.05 3130,1283.5C 3132.93,1295.69 3134.27,1308.02 3134,1320.5C 3129.8,1323.9 3124.96,1325.74 3119.5,1326C 3113.06,1328.78 3108.22,1333.28 3105,1339.5C 3101.61,1350.22 3095.77,1359.39 3087.5,1367C 3078.03,1373.24 3068.37,1379.24 3058.5,1385C 3056.83,1386.67 3055.17,1388.33 3053.5,1390C 3046.36,1392.9 3039.03,1395.23 3031.5,1397C 3024.28,1400.46 3016.95,1403.63 3009.5,1406.5C 3008.83,1406.17 3008.17,1405.83 3007.5,1405.5C 3022.11,1368.22 3010.44,1343.39 2972.5,1331C 2951.92,1324.91 2941.59,1332.58 2941.5,1354C 2921.47,1362.18 2902.47,1372.18 2884.5,1384C 2873.91,1391.26 2865.41,1400.42 2859,1411.5C 2853.73,1422.38 2848.73,1433.38 2844,1444.5C 2840.95,1448.09 2837.78,1451.59 2834.5,1455C 2807.32,1474.76 2780.32,1494.76 2753.5,1515C 2745.03,1525.4 2743.36,1536.9 2748.5,1549.5C 2756.06,1566.45 2768.72,1577.61 2786.5,1583C 2799.13,1584.47 2811.63,1586.64 2824,1589.5C 2831.79,1593.06 2839.13,1597.4 2846,1602.5C 2854.99,1618.96 2859.49,1636.63 2859.5,1655.5C 2850.52,1653.6 2841.52,1651.77 2832.5,1650C 2802.14,1649.03 2771.8,1649.53 2741.5,1651.5C 2738.17,1651.33 2734.83,1651.17 2731.5,1651C 2719.13,1646.35 2706.29,1644.51 2693,1645.5C 2670.94,1645.97 2649.77,1650.47 2629.5,1659C 2619.83,1663.83 2610.17,1668.67 2600.5,1673.5C 2591.25,1684.38 2585.75,1697.04 2584,1711.5C 2583.03,1730.84 2582.03,1750.17 2581,1769.5C 2575.93,1777.58 2569.76,1784.74 2562.5,1791C 2555.83,1796.33 2549.17,1801.67 2542.5,1807C 2528.74,1815.88 2514.07,1822.55 2498.5,1827C 2480.46,1828.92 2462.79,1827.25 2445.5,1822C 2428.42,1815.79 2412.42,1807.46 2397.5,1797C 2386.64,1784.81 2375.14,1773.31 2363,1762.5C 2352.63,1747.47 2342.29,1732.47 2332,1717.5C 2319.62,1703.16 2307.29,1688.83 2295,1674.5C 2280.99,1661.58 2266.15,1649.75 2250.5,1639C 2231.4,1629.82 2211.74,1622.32 2191.5,1616.5C 2194.79,1608.32 2197.63,1599.98 2200,1591.5C 2201.24,1570.2 2201.9,1548.86 2202,1527.5C 2203.48,1515.42 2205.48,1503.42 2208,1491.5C 2210.38,1484.46 2214.88,1479.29 2221.5,1476C 2250.33,1467.83 2276.83,1455 2301,1437.5C 2307.72,1429.56 2310.88,1420.4 2310.5,1410C 2309.01,1392.2 2305.84,1374.7 2301,1357.5C 2298.17,1353 2295.33,1348.5 2292.5,1344C 2286.11,1339.98 2279.61,1336.15 2273,1332.5C 2268.6,1304.57 2256.26,1280.9 2236,1261.5C 2223.08,1242.6 2205.91,1228.77 2184.5,1220C 2174.61,1217.69 2164.61,1216.02 2154.5,1215C 2152.22,1214.77 2150.22,1213.93 2148.5,1212.5C 2142.56,1173.75 2140.06,1134.75 2141,1095.5C 2140.25,1088.46 2139.25,1081.46 2138,1074.5C 2128.17,1049.16 2117.5,1024.16 2106,999.5C 2102.15,985.793 2096.15,973.126 2088,961.5C 2076.68,956.196 2065.35,950.863 2054,945.5C 2038.42,932.244 2022.59,919.411 2006.5,907C 1998.24,901.186 1989.57,896.02 1980.5,891.5C 1979.81,879.485 1978.98,867.485 1978,855.5C 1974.92,844.587 1971.25,833.92 1967,823.5C 1966.03,780.829 1965.03,738.163 1964,695.5C 1962.11,687.826 1960.11,680.16 1958,672.5C 1949.88,657.378 1940.54,643.045 1930,629.5C 1923.08,618.666 1916.42,607.666 1910,596.5C 1903.1,586.468 1900.77,575.468 1903,563.5C 1904.06,560.438 1905.89,557.938 1908.5,556C 1914.83,555.667 1921.17,555.333 1927.5,555C 1943.61,550.076 1959.61,544.743 1975.5,539C 1988.23,532.968 2000.89,526.968 2013.5,521C 2023.79,519.864 2033.79,517.531 2043.5,514C 2055.64,506.597 2068.31,500.263 2081.5,495C 2096.82,490.834 2112.15,487.334 2127.5,484.5 Z"/>
</g>
<g>
    <path id="kardaev" style="opacity:1" fill="#fefefe" d="M 1702.5,798.5 C 1724.17,798.333 1745.84,798.5 1767.5,799C 1772.87,799.591 1777.87,801.258 1782.5,804C 1797.22,815.718 1812.22,827.051 1827.5,838C 1836.43,842.319 1845.43,846.653 1854.5,851C 1869.45,861.615 1884.12,872.615 1898.5,884C 1917.47,894.81 1937.47,903.477 1958.5,910C 1967.66,914.746 1976.66,919.746 1985.5,925C 2003.79,938.953 2021.79,953.286 2039.5,968C 2048.77,973.468 2058.44,978.135 2068.5,982C 2073.92,988.923 2077.42,996.756 2079,1005.5C 2092,1032.17 2103.34,1059.5 2113,1087.5C 2114.1,1115.16 2115.1,1142.82 2116,1170.5C 2118.79,1184.71 2120.46,1199.04 2121,1213.5C 2122.22,1226.05 2128.72,1234.55 2140.5,1239C 2152.51,1241.26 2164.51,1243.59 2176.5,1246C 2187.42,1250.93 2197.25,1257.43 2206,1265.5C 2211.71,1274.24 2218.38,1282.24 2226,1289.5C 2237.39,1304.28 2244.39,1320.95 2247,1339.5C 2251.59,1351.4 2260.09,1359.06 2272.5,1362.5C 2273.33,1363.5 2274.17,1364.5 2275,1365.5C 2280.7,1381.71 2283.37,1398.38 2283,1415.5C 2282.42,1417 2281.58,1418.33 2280.5,1419.5C 2262.13,1432.18 2242.13,1441.35 2220.5,1447C 2207.93,1451.69 2197.43,1459.19 2189,1469.5C 2186.65,1474.2 2184.32,1478.86 2182,1483.5C 2175.13,1516.46 2172.47,1549.79 2174,1583.5C 2169.85,1595.76 2165.85,1608.1 2162,1620.5C 2160.58,1624.79 2158.41,1628.63 2155.5,1632C 2152.26,1633.02 2148.92,1633.52 2145.5,1633.5C 2129.5,1631.67 2113.5,1629.83 2097.5,1628C 2091.23,1626.8 2085.23,1624.8 2079.5,1622C 2070.8,1598.25 2062.3,1574.41 2054,1550.5C 2047.19,1535.54 2038.86,1521.54 2029,1508.5C 2023.29,1501.23 2015.79,1497.56 2006.5,1497.5C 1994.39,1497.79 1982.39,1498.96 1970.5,1501C 1967.17,1503 1963.83,1505 1960.5,1507C 1954.11,1513.39 1947.78,1519.72 1941.5,1526C 1923.3,1536.6 1904.96,1546.93 1886.5,1557C 1884.17,1557.67 1881.83,1557.67 1879.5,1557C 1865.78,1545.93 1852.78,1534.26 1840.5,1522C 1827.32,1512.24 1814.32,1502.24 1801.5,1492C 1784.19,1470.67 1762.85,1454.67 1737.5,1444C 1730.47,1442.09 1723.47,1442.25 1716.5,1444.5C 1710.82,1442.91 1705.98,1439.91 1702,1435.5C 1692.49,1420.82 1684.83,1405.15 1679,1388.5C 1673.67,1378.5 1668.33,1368.5 1663,1358.5C 1661.39,1348.65 1659.06,1338.99 1656,1329.5C 1649,1318.17 1642,1306.83 1635,1295.5C 1633.4,1292.91 1633.23,1290.24 1634.5,1287.5C 1652.23,1274.87 1660.73,1257.54 1660,1235.5C 1662.66,1214.29 1661.66,1193.29 1657,1172.5C 1656,1154.51 1655.33,1136.51 1655,1118.5C 1654.13,1108.9 1651.46,1099.9 1647,1091.5C 1643.59,1088.55 1640.09,1085.71 1636.5,1083C 1629.85,1079.7 1623.19,1076.37 1616.5,1073C 1601.46,1063.48 1586.13,1054.48 1570.5,1046C 1557.93,1033.43 1546.09,1020.26 1535,1006.5C 1527.59,996.165 1521.09,985.332 1515.5,974C 1522.52,950.793 1531.35,928.293 1542,906.5C 1555.02,882.133 1571.85,860.633 1592.5,842C 1596.83,839 1601.17,836 1605.5,833C 1625.36,824.936 1645.69,818.27 1666.5,813C 1678.87,808.828 1690.87,803.994 1702.5,798.5 Z"/>
</g>
<g>
    <path id="novorossiya_gov" style="opacity:1" fill="#9a0909" d="M 909.5,2159.5 C 633.833,2159.5 358.167,2159.5 82.5,2159.5C 83.8114,2145.59 87.3114,2132.25 93,2119.5C 98.3579,2109.14 106.025,2101.14 116,2095.5C 130.829,2102.74 146.329,2108.24 162.5,2112C 176.011,2114.22 188.344,2111.55 199.5,2104C 209.594,2089.65 217.427,2074.15 223,2057.5C 224.651,2043.48 225.985,2029.48 227,2015.5C 232.092,2011.7 237.592,2008.53 243.5,2006C 255.757,2000.13 268.257,1994.63 281,1989.5C 300.289,1988.49 319.122,1990.99 337.5,1997C 340.293,2000.08 342.46,2003.58 344,2007.5C 344.341,2018.23 345.341,2028.9 347,2039.5C 350.702,2060.41 362.202,2075.25 381.5,2084C 395.712,2088.77 409.712,2094.11 423.5,2100C 429.5,2100.67 435.5,2100.67 441.5,2100C 454.405,2095.96 465.238,2088.8 474,2078.5C 488.845,2058.13 503.178,2037.46 517,2016.5C 518.118,2014.23 518.951,2011.9 519.5,2009.5C 532.78,2011.16 546.114,2012.16 559.5,2012.5C 572.316,2014.28 583.483,2010.95 593,2002.5C 600.693,1991.09 608.36,1979.76 616,1968.5C 623.557,1962.61 631.39,1957.11 639.5,1952C 662.65,1941.12 685.65,1929.78 708.5,1918C 730.875,1912.89 753.208,1907.73 775.5,1902.5C 780.797,1901.73 786.13,1901.39 791.5,1901.5C 808.578,1903.39 825.578,1905.89 842.5,1909C 851.898,1910.8 860.565,1909.14 868.5,1904C 875.693,1895.77 882.527,1887.27 889,1878.5C 892.815,1870.02 898.982,1863.85 907.5,1860C 948.819,1850.34 990.152,1840.67 1031.5,1831C 1042.12,1827.36 1051.12,1821.36 1058.5,1813C 1082.17,1813.54 1105.84,1814.21 1129.5,1815C 1136.46,1810.9 1143.8,1807.57 1151.5,1805C 1160.26,1799.07 1168.26,1792.24 1175.5,1784.5C 1184.88,1774.06 1190.21,1761.72 1191.5,1747.5C 1192.83,1739.19 1193.5,1730.53 1193.5,1721.5C 1193.5,1712.66 1193.17,1703.99 1192.5,1695.5C 1192.93,1681.03 1191.76,1666.7 1189,1652.5C 1182.88,1636.67 1177.38,1620.67 1172.5,1604.5C 1174.66,1587.48 1181.16,1572.48 1192,1559.5C 1198.52,1544.13 1205.85,1529.13 1214,1514.5C 1215.16,1510.88 1216.16,1507.21 1217,1503.5C 1218.79,1445.85 1220.12,1388.18 1221,1330.5C 1221.58,1322.95 1224.75,1316.78 1230.5,1312C 1244.16,1307 1257.82,1302 1271.5,1297C 1280.88,1291.55 1288.71,1284.39 1295,1275.5C 1303.85,1258.46 1309.85,1240.46 1313,1221.5C 1314.25,1220 1315.25,1218.33 1316,1216.5C 1321.74,1211.88 1328.24,1208.71 1335.5,1207C 1341.55,1203.79 1346.88,1199.62 1351.5,1194.5C 1369.25,1163.9 1376.09,1130.9 1372,1095.5C 1369.98,1077.73 1367.31,1060.06 1364,1042.5C 1360.68,1016.83 1360.68,991.165 1364,965.5C 1366.42,961.495 1368.09,957.162 1369,952.5C 1370.18,949.467 1371.84,946.801 1374,944.5C 1376.67,945.67 1379,947.337 1381,949.5C 1388.18,961.852 1396.35,973.519 1405.5,984.5C 1413.87,993.685 1424.2,999.185 1436.5,1001C 1456.93,1001.72 1477.26,1001.38 1497.5,1000C 1504.88,1010.6 1512.38,1021.1 1520,1031.5C 1530.97,1044.22 1542.47,1056.39 1554.5,1068C 1578.45,1080.98 1602.12,1094.48 1625.5,1108.5C 1626.76,1112.06 1627.59,1115.73 1628,1119.5C 1628.72,1136.16 1629.38,1152.83 1630,1169.5C 1633.87,1193.72 1634.54,1218.05 1632,1242.5C 1631.8,1250.87 1628.63,1257.87 1622.5,1263.5C 1608.22,1270.16 1603.05,1281.16 1607,1296.5C 1609.86,1304.55 1613.53,1312.22 1618,1319.5C 1622.33,1326.17 1626.67,1332.83 1631,1339.5C 1632.62,1350.9 1635.62,1361.9 1640,1372.5C 1650.64,1391.1 1659.64,1410.44 1667,1430.5C 1671.74,1438.3 1676.74,1445.97 1682,1453.5C 1690.83,1463.17 1701.66,1469.17 1714.5,1471.5C 1716.33,1527.48 1716.83,1583.48 1716,1639.5C 1715.32,1645.86 1714.48,1652.19 1713.5,1658.5C 1712.42,1659.67 1711.58,1661 1711,1662.5C 1699.84,1672.51 1687.34,1680.68 1673.5,1687C 1652.3,1689.96 1631.3,1693.96 1610.5,1699C 1594.5,1699.33 1578.5,1699.67 1562.5,1700C 1548.92,1704.13 1535.59,1708.8 1522.5,1714C 1515.6,1717.7 1508.77,1721.53 1502,1725.5C 1492.54,1731.23 1484.54,1738.57 1478,1747.5C 1471.56,1762.9 1467.23,1778.9 1465,1795.5C 1463.6,1798.63 1461.93,1801.63 1460,1804.5C 1450.9,1811.63 1441.4,1818.13 1431.5,1824C 1427.16,1827.84 1423.66,1832.34 1421,1837.5C 1413.88,1852.08 1407.55,1867.08 1402,1882.5C 1398.53,1895.59 1396.86,1908.93 1397,1922.5C 1391.3,1928.74 1386.46,1935.58 1382.5,1943C 1379.17,1945.67 1375.83,1948.33 1372.5,1951C 1363.61,1954.11 1354.95,1957.78 1346.5,1962C 1329.94,1968.74 1312.77,1973.24 1295,1975.5C 1286.86,1974.01 1279.02,1971.51 1271.5,1968C 1266.77,1966.53 1261.94,1965.7 1257,1965.5C 1242.83,1968.67 1229.33,1973.67 1216.5,1980.5C 1215.61,1981.32 1215.28,1982.32 1215.5,1983.5C 1214.45,1983.35 1213.45,1983.52 1212.5,1984C 1204.1,1991.56 1197.43,2000.4 1192.5,2010.5C 1186.42,2027.7 1181.92,2045.37 1179,2063.5C 1177.53,2070.63 1174.36,2076.79 1169.5,2082C 1149.76,2092.53 1128.76,2099.53 1106.5,2103C 1068.15,2103.96 1029.82,2105.63 991.5,2108C 974.013,2108.62 958.013,2113.62 943.5,2123C 925.492,2128.78 914.159,2140.95 909.5,2159.5 Z"/>
</g>
<g>
    <path id="don_cossack_host" style="opacity:1" fill="#e78612" d="M 2618.5,2159.5 C 2209.83,2159.5 1801.17,2159.5 1392.5,2159.5C 1395.47,2151.43 1399.3,2143.76 1404,2136.5C 1407.83,2132.17 1412.33,2128.67 1417.5,2126C 1459.36,2107.16 1501.69,2089.49 1544.5,2073C 1550.76,2069.73 1556.76,2066.06 1562.5,2062C 1584.24,2043.26 1605.07,2023.43 1625,2002.5C 1628.67,1997.5 1632.33,1992.5 1636,1987.5C 1640.79,1980.14 1642.46,1972.14 1641,1963.5C 1639.05,1958.53 1635.89,1954.37 1631.5,1951C 1623.58,1949.43 1615.58,1949.1 1607.5,1950C 1581.1,1956.6 1554.43,1961.93 1527.5,1966C 1507.15,1966.82 1486.81,1966.49 1466.5,1965C 1451.6,1960.13 1437.77,1953.3 1425,1944.5C 1420.87,1908.68 1428.54,1875.68 1448,1845.5C 1457.22,1839.47 1466.39,1833.3 1475.5,1827C 1483.08,1819.08 1488.58,1809.92 1492,1799.5C 1494.13,1787.72 1496.8,1776.05 1500,1764.5C 1503.45,1758.71 1507.95,1753.88 1513.5,1750C 1528.72,1741.06 1544.72,1733.72 1561.5,1728C 1567.45,1727 1573.45,1726.5 1579.5,1726.5C 1589.5,1727.22 1599.5,1727.39 1609.5,1727C 1632.64,1721.52 1655.97,1716.86 1679.5,1713C 1701.58,1704.91 1720.42,1692.08 1736,1674.5C 1737.08,1671.35 1738.41,1668.35 1740,1665.5C 1741.37,1656.88 1742.37,1648.21 1743,1639.5C 1743.67,1599.5 1743.67,1559.5 1743,1519.5C 1741.32,1505.19 1741.15,1490.85 1742.5,1476.5C 1750.24,1480.74 1757.57,1485.58 1764.5,1491C 1770.47,1497.64 1776.47,1504.31 1782.5,1511C 1796.19,1522.35 1810.19,1533.35 1824.5,1544C 1834.17,1553 1843.83,1562 1853.5,1571C 1861.83,1578.92 1871.66,1583.42 1883,1584.5C 1893.22,1583.31 1902.72,1580.15 1911.5,1575C 1927.5,1565.33 1943.5,1555.67 1959.5,1546C 1965.81,1539.36 1972.48,1533.02 1979.5,1527C 1987.96,1525.89 1996.46,1525.05 2005,1524.5C 2009.21,1526.87 2012.54,1530.2 2015,1534.5C 2020.01,1543.86 2025.01,1553.2 2030,1562.5C 2037.66,1584.82 2045.33,1607.16 2053,1629.5C 2057.73,1640.56 2065.89,1647.72 2077.5,1651C 2099.84,1655.19 2122.34,1658.36 2145,1660.5C 2156.44,1660.91 2166.61,1657.74 2175.5,1651C 2177.67,1647.78 2180.17,1644.95 2183,1642.5C 2202.84,1647.89 2222.01,1655.06 2240.5,1664C 2253.89,1674.05 2266.73,1684.89 2279,1696.5C 2288.65,1708.49 2298.65,1720.15 2309,1731.5C 2318.5,1744.49 2327.5,1757.82 2336,1771.5C 2350.42,1786.59 2364.92,1801.75 2379.5,1817C 2414.49,1843.88 2454.15,1856.55 2498.5,1855C 2506.5,1864.33 2514.5,1873.67 2522.5,1883C 2528.36,1887.1 2534.69,1890.43 2541.5,1893C 2556.12,1898.01 2569.12,1895.34 2580.5,1885C 2587.29,1883.86 2594.12,1883.03 2601,1882.5C 2604.16,1883.49 2607.33,1884.66 2610.5,1886C 2616.79,1899.21 2621.29,1913.04 2624,1927.5C 2627.15,1934.62 2630.48,1941.62 2634,1948.5C 2636.84,1951.01 2639.34,1953.84 2641.5,1957C 2653.56,1965.03 2666.23,1972.03 2679.5,1978C 2687.47,1985.63 2694.31,1994.13 2700,2003.5C 2706.37,2010.21 2712.37,2017.21 2718,2024.5C 2720.95,2028.39 2722.78,2032.72 2723.5,2037.5C 2709.78,2037.58 2696.11,2036.74 2682.5,2035C 2673.52,2032.25 2664.35,2030.42 2655,2029.5C 2648.17,2029.13 2642.5,2031.47 2638,2036.5C 2633.72,2043 2630.38,2050 2628,2057.5C 2625.67,2068.79 2623.67,2080.12 2622,2091.5C 2617.89,2100.63 2614.22,2109.96 2611,2119.5C 2610.37,2125.37 2609.54,2131.2 2608.5,2137C 2610.65,2145.12 2613.98,2152.62 2618.5,2159.5 Z"/>
</g>
<g>
    <path style="opacity:1" fill="#580509" d="M 1192.5,1695.5 C 1193.17,1703.99 1193.5,1712.66 1193.5,1721.5C 1193.5,1730.53 1192.83,1739.19 1191.5,1747.5C 1192.47,1730.21 1192.81,1712.88 1192.5,1695.5 Z"/>
</g>
<g>
    <path style="opacity:1" fill="#500606" d="M 791.5,1901.5 C 786.13,1901.39 780.797,1901.73 775.5,1902.5C 778.356,1900.99 781.523,1900.33 785,1900.5C 787.361,1900.5 789.527,1900.84 791.5,1901.5 Z"/>
</g>
</svg>